<?xml version="1.0" encoding="UTF-8"?>
<svg id="Capa_2" data-name="Capa 2" xmlns="http://www.w3.org/2000/svg" viewBox="0 0 459.51 338.44">
  <defs>
    <style>
      .cls-1 {
        fill: #fff;
      }
    </style>
  </defs>
  <g id="Capa_1-2" data-name="Capa 1">
    <path class="cls-1" d="M404.48,0H55.03C24.63,0,0,24.64,0,55.03v228.38c0,30.39,24.63,55.03,55.03,55.03H404.48c30.39,0,55.03-24.64,55.03-55.03V55.03c0-30.39-24.64-55.03-55.03-55.03Zm-84.53,171.28l103.1-103.09v203.87c0,.75-.03,1.5-.08,2.24l-103.02-103.02ZM65,35.77H392.44c2.01,0,3.98,.19,5.88,.57l-120.64,120.65c-.06,.05-.11,.1-.16,.15-.05,.05-.1,.1-.15,.16l-24.78,24.78c-5.83,5.82-13.57,9.03-21.8,9.03s-15.98-3.21-21.8-9.03l-26.97-26.97s-.02-.02-.03-.03l-.03-.03L62.75,35.85c.74-.05,1.49-.08,2.25-.08Zm-30.53,238.54c-.05-.74-.08-1.49-.08-2.25V66.38c0-.76,.03-1.51,.08-2.25l105.09,105.09-105.09,105.09Zm357.97,28.36H65c-.76,0-1.51-.03-2.25-.08l105.09-105.09,12.86,12.86c13.81,13.81,31.95,20.71,50.09,20.71s36.27-6.9,50.08-20.71l10.79-10.79,103.03,103.02c-.74,.05-1.49,.08-2.25,.08Z"/>
  </g>
</svg>