<?xml version="1.0" encoding="UTF-8"?>
<svg id="Capa_2" data-name="Capa 2" xmlns="http://www.w3.org/2000/svg" viewBox="0 0 505.54 505.54">
  <defs>
    <style>
      .cls-1 {
        fill: #fff;
      }
    </style>
  </defs>
  <g id="Capa_1-2" data-name="Capa 1">
    <g>
      <path class="cls-1" d="M391.86,0H113.68C50.9,0,0,50.9,0,113.68V391.86c0,62.78,50.9,113.68,113.68,113.68H391.86c62.78,0,113.68-50.9,113.68-113.68V113.68C505.54,50.9,454.64,0,391.86,0Zm67.29,392.16c0,37-29.99,66.99-66.99,66.99H113.38c-37,0-66.99-29.99-66.99-66.99v-7.37c29.24-23.37,58.48-46.74,87.71-70.11,.97-.74,4.26-3.05,8.97-2.92,3.67,.1,6.3,1.64,7.4,2.37,17.17,10.38,34.33,20.77,51.49,31.15,3.38,2.74,28.9,22.8,59.47,14.83,12.12-3.16,20.72-9.61,25.78-14.23,27.07-31.25,54.15-62.5,81.22-93.75,5.22-6.21,10.44-12.42,15.65-18.63,.8-.77,4.33-3.98,9.82-4.09,4.68-.09,7.95,2.14,8.96,2.9,11.18,11.39,22.65,22.88,34.43,34.43,7.31,7.17,14.59,14.22,21.84,21.16v104.26Zm0-169.52c-7.83-7.61-15.65-15.22-23.48-22.82-2.88-2.76-18.99-17.66-43.52-16.69-20.49,.81-33.9,12.17-37.56,15.5-49.12,56.36-84.77,97.17-93.92,108.61-1.5,1.87-5.61,7.1-12.19,8.24-7.18,1.24-13.75-3.02-17.51-6.04-18.41-11.1-36.81-22.21-55.22-33.31-6.71-4.31-19.54-10.97-35.77-10.13-15.91,.82-27.65,8.46-37.56,14.9-8.76,5.7-13.99,10.8-19.08,15.5-8.48,7.84-20.61,18.31-36.94,30.19V113.38c0-37,29.99-66.99,66.99-66.99H392.16c37,0,66.99,29.99,66.99,66.99v109.26Z"/>
      <rect class="cls-1" x="93.47" y="114.83" width="92.33" height="92.33" rx="46.16" ry="46.16"/>
    </g>
  </g>
</svg>