<?xml version="1.0" encoding="UTF-8"?>
<svg id="Capa_2" data-name="Capa 2" xmlns="http://www.w3.org/2000/svg" viewBox="0 0 743.38 770.45">
  <defs>
    <style>
      .cls-1 {
        fill: #fff;
      }
    </style>
  </defs>
  <g id="Capa_1-2" data-name="Capa 1">
    <g>
      <g>
        <path class="cls-1" d="M659.1,208.36v9.82h-45.04c.45-5.63,.45-13.95-2.08-23.54-.84-3.2-3.3-11.61-9.42-20.97-4.89-7.47-10.26-12.7-14.26-16.06-27.68-29.3-55.37-58.6-83.05-87.9-4.08-4.82-11.8-12.63-23.84-18.23-15.71-7.31-30.03-6.81-36.61-6.16H188.69c-13.45-.05-26.9-.09-40.34-.14-1.82,.16-7.37,.9-12.27,5.38-5.72,5.24-6.53,11.91-6.69,13.53V218.18h-45.12V70.33C84.27,31.49,115.76,0,154.6,0H458.36c9.64,.68,24.36,2.88,40.66,10.24,14.01,6.33,24.23,14.22,30.88,20.26,31.72,33.55,63.44,67.11,95.16,100.66,6.54,6.43,15.46,16.73,22.6,31.37,9.1,18.67,11.06,35.72,11.44,45.83Z"/>
        <path class="cls-1" d="M659.1,624.46v75.66c0,38.84-31.49,70.33-70.33,70.33H154.6c-38.84,0-70.33-31.49-70.33-70.33v-75.66h45.12v38.61c.04,14.63,.09,29.25,.13,43.87,.36,1.96,1.62,7.33,6.33,12.03,4.71,4.7,10.08,5.95,12.04,6.3,13.6-.04,27.2-.09,40.8-.14h366.07c11.71,.07,23.43,.15,35.14,.22,1.66,.11,9.95,.48,16.83-5.65,8.98-7.99,7.46-19.85,7.33-20.79v-74.45h45.04Z"/>
        <path class="cls-1" d="M675.91,218.18H67.48C30.21,218.18,0,248.39,0,285.65v271.34c0,37.26,30.21,67.47,67.48,67.47H675.91c37.26,0,67.47-30.21,67.47-67.47V285.65c0-37.26-30.21-67.47-67.47-67.47Zm22.3,339.04c0,12.14-9.85,21.99-22,21.99H67c-12.14,0-21.99-9.85-21.99-21.99V285.42c0-12.15,9.85-21.99,21.99-21.99H676.21c12.15,0,22,9.84,22,21.99v271.8Z"/>
      </g>
      <g>
        <path class="cls-1" d="M131.84,533.21c-11.87,0-21.5-9.63-21.5-21.5v-173.81c0-11.87,9.63-21.5,21.5-21.5h55.49c1.12,0,2.24,.09,3.35,.26,16.98,2.68,32.36,11.5,43.29,24.83,10.94,13.34,16.5,30.03,15.65,47.01-1.66,33.51-27.3,60.94-60.96,65.21-.84,.11-1.68,.16-2.52,.17l-32.8,.28v57.56c0,11.87-9.63,21.5-21.5,21.5Zm21.5-173.81v51.75l30.98-.26c12.22-2.06,21.75-12.42,22.35-24.52,.63-12.69-8.62-24.26-21.28-26.96h-32.06Z"/>
        <path class="cls-1" d="M353.56,526.63c-3.8,0-7.6-.17-11.42-.51l-16.52-.15c-11.8-.11-21.3-9.7-21.3-21.5v-168.54c0-11.87,9.63-21.5,21.5-21.5h17.92c10.9-.42,21.82,.41,32.46,2.45,11.78,2.26,33.7,6.48,51.6,21.4,31.85,26.55,31.3,69.58,31.09,85.78-.22,17.27-.59,46.18-22.42,70.3-18.62,20.57-42.76,26.25-54.36,28.97-9.35,2.2-18.91,3.3-28.55,3.3Zm-6.24-43.23c8.45,.63,16.83-.02,24.94-1.93,8.49-1.99,22.69-5.33,32.32-15.97,10.93-12.07,11.14-28.67,11.31-42,.15-11.6,.5-38.75-15.63-52.2-9.37-7.81-23.1-10.45-32.18-12.2-6.8-1.31-13.78-1.9-20.76-1.77v126.06Z"/>
        <path class="cls-1" d="M562.1,357.65v39.32h41.93c11.87,0,21.5,9.63,21.5,21.5s-9.63,21.5-21.5,21.5h-41.93v65.87c0,11.87-9.62,21.5-21.5,21.5s-21.5-9.63-21.5-21.5v-169.69c0-11.88,9.63-21.5,21.5-21.5h70.02c11.88,0,21.5,9.62,21.5,21.5s-9.62,21.5-21.5,21.5h-48.52Z"/>
      </g>
    </g>
  </g>
</svg>