<?xml version="1.0" encoding="UTF-8"?>
<svg id="Capa_2" data-name="Capa 2" xmlns="http://www.w3.org/2000/svg" viewBox="0 0 399.28 394.74">
  <defs>
    <style>
      .cls-1 {
        fill: #fff;
      }
    </style>
  </defs>
  <g id="Capa_1-2" data-name="Capa 1">
    <path class="cls-1" d="M255.76,128.57l-98.61,49.71c4.17,14.57,4.1,29.79,.1,43.93l104.31,52.15c.99,.22,1.97,.55,2.93,.98,7.54,3.43,10.87,12.33,7.45,19.87-7.95,17.47-4.99,37.8,7.52,51.79,18.84,21.2,50.61,23.78,70.85,5.79,20.66-18.37,23.21-50.08,5.74-70.84-9.36-10.04-21.63-16.22-33.71-16.98-8.26-.52-14.55-7.64-14.03-15.91,.52-8.26,7.66-14.54,15.91-14.03,19.79,1.24,39.5,11,54.08,26.8,.14,.14,.27,.29,.4,.44,13.72,16.11,20.39,36.69,18.79,57.98-1.6,21.25-11.27,40.77-27.24,54.96-14.75,13.11-33.22,19.53-51.78,19.53-22.47,0-45.08-9.41-61.4-27.77-17.07-19.09-23.29-45.33-17.34-69.97l-95.95-47.98c-3.11,4.04-6.65,7.81-10.61,11.26-14.66,13-33.14,20-52.54,20-1.82,0-3.65-.07-5.49-.19-21.24-1.44-40.8-11.07-55.07-27.12C5.8,236.91-1.26,216.28,.19,194.86c1.44-21.24,11.07-40.8,27.12-55.07,11.28-10.15,26.41-16.96,43.69-19.62,8.19-1.26,15.85,4.36,17.11,12.55,1.26,8.19-4.36,15.85-12.55,17.11-8.01,1.23-19.41,4.37-28.25,12.32-20.92,18.6-23.05,50.37-4.82,70.88,18.54,20.86,50.31,22.99,70.82,4.76,.05-.04,.09-.07,.13-.11,17.26-15.01,21.85-39.11,11.42-59.97-.4-.8-.72-1.62-.96-2.45,0,0,0-.01-.01-.02-.15-.52-.28-1.05-.37-1.58-.35-1.91-.31-3.85,.07-5.71,.13-.58,.28-1.16,.48-1.72,.16-.51,.36-1.02,.6-1.52,.11-.25,.23-.5,.36-.74h0c.13-.25,.27-.49,.41-.73,.71-1.18,1.59-2.27,2.62-3.23,.5-.46,1.04-.9,1.61-1.29,.59-.41,1.21-.78,1.86-1.11l.32-.16,110.44-55.67c-1.96-6.93-3.01-14.23-3.01-21.78C239.28,35.89,275.17,0,319.28,0c18.44,0,37.21,6.7,51.5,18.39,6.41,5.25,7.36,14.7,2.11,21.11-5.24,6.41-14.7,7.36-21.11,2.11-9.02-7.38-20.86-11.61-32.5-11.61-27.57,0-50,22.43-50,50,0,7.4,1.62,14.43,4.52,20.76,.49,1.08,1.03,2.14,1.59,3.18,8.5,15.52,24.99,26.06,43.89,26.06,26.24,0,47.76-19.07,50.06-44.36,.75-8.25,8.03-14.33,16.3-13.58,8.25,.75,14.33,8.05,13.58,16.3-3.71,40.84-38.08,71.64-79.94,71.64-25.86,0-48.89-12.33-63.52-31.43Z"/>
  </g>
</svg>