<?xml version="1.0" encoding="UTF-8"?>
<svg id="Capa_2" data-name="Capa 2" xmlns="http://www.w3.org/2000/svg" viewBox="0 0 319.97 320">
  <defs>
    <style>
      .cls-1 {
        fill: #fff;
      }
    </style>
  </defs>
  <g id="Capa_1-2" data-name="Capa 1">
    <path class="cls-1" d="M160.19,0C72.09,0,.38,71.65,.34,159.75c-.02,28.16,7.36,55.65,21.34,79.88L0,320l83.72-19.78c23.34,12.74,49.62,19.42,76.38,19.44h.06c88.08,0,159.76-71.67,159.81-159.75,.03-42.7-16.57-82.85-46.75-113.06C243.04,16.65,202.94,.02,160.19,0Zm-.03,32c34.18,.02,66.29,13.34,90.44,37.47,24.14,24.16,37.41,56.26,37.38,90.41-.03,70.46-57.35,127.78-127.84,127.78-21.33-.02-42.45-5.37-61.06-15.53l-10.78-5.88-11.91,2.81-31.5,7.44,7.69-28.56,3.47-12.81-6.62-11.5c-11.17-19.33-17.08-41.43-17.06-63.87,.03-70.43,57.36-127.75,127.81-127.75Zm-56.53,54c-2.67,0-6.99,1-10.66,5-3.66,3.98-14,13.63-14,33.28s14.31,38.64,16.31,41.31c1.98,2.66,27.63,44.25,68.22,60.25,33.73,13.3,40.58,10.67,47.91,10,7.33-.66,23.64-9.64,26.97-18.97,3.33-9.33,3.34-17.35,2.34-19-.99-1.66-3.66-2.66-7.66-4.66-3.98-2-23.62-11.64-27.28-12.97s-6.34-2-9,2c-2.66,4-10.29,12.97-12.62,15.63-2.34,2.67-4.66,3.03-8.66,1.03-4-2.02-16.86-6.24-32.12-19.84-11.87-10.58-19.88-23.62-22.22-27.62-2.32-3.98-.22-6.17,1.78-8.16,1.79-1.79,3.97-4.66,5.97-7,1.98-2.34,2.67-4,4-6.66,1.33-2.66,.65-5-.34-7-.99-2-8.76-21.72-12.31-29.62-2.99-6.64-6.15-6.79-9-6.91-2.32-.1-4.97-.09-7.62-.09Z"/>
  </g>
</svg>